<?xml version="1.0" standalone="no"?>
<!DOCTYPE svg PUBLIC "-//W3C//DTD SVG 20010904//EN"
 "http://www.w3.org/TR/2001/REC-SVG-20010904/DTD/svg10.dtd">
<svg version="1.0" xmlns="http://www.w3.org/2000/svg"
 width="512.000000pt" height="512.000000pt" viewBox="0 0 512.000000 512.000000"
 preserveAspectRatio="xMidYMid meet">

<g transform="translate(0.000000,512.000000) scale(0.100000,-0.100000)"
fill="#000000" stroke="none">
<path d="M2737 4804 c-11 -13 -32 -19 -60 -19 -69 -1 -116 -31 -143 -89 -33
-72 -50 -92 -67 -78 -8 7 -17 9 -20 5 -4 -3 -7 -3 -7 1 0 4 15 21 33 38 26 25
28 29 10 24 -14 -5 -24 -2 -30 7 -16 29 -183 -22 -183 -56 0 -6 -3 -7 -6 -4
-11 11 -104 -45 -140 -83 -18 -19 -35 -32 -39 -28 -11 11 6 50 33 75 34 32 22
40 -20 12 -40 -27 -79 -84 -71 -105 6 -17 -23 -53 -54 -65 -13 -5 -23 -15 -23
-24 0 -8 -7 -15 -15 -15 -7 0 -18 -6 -22 -14 -4 -7 -22 -21 -40 -29 -20 -11
-35 -29 -43 -52 -6 -19 -16 -35 -21 -35 -5 0 -9 2 -9 5 0 8 28 110 36 130 7
18 4 17 -22 -5 -32 -26 -58 -86 -69 -155 -5 -32 0 -57 25 -120 30 -73 58 -159
127 -385 14 -47 29 -90 34 -96 5 -6 12 -28 17 -50 l8 -39 22 35 c13 19 25 46
29 60 8 30 -24 190 -43 210 -26 30 -42 86 -48 172 -6 81 -5 88 14 98 11 6 24
8 29 5 5 -3 11 1 14 7 4 10 7 10 18 0 12 -11 12 -14 0 -21 -10 -7 -8 -13 10
-30 18 -16 20 -24 11 -33 -7 -7 -12 -24 -12 -39 0 -30 -15 -47 -23 -27 -2 8
-8 9 -13 4 -5 -5 -4 -11 4 -13 6 -3 12 -11 12 -18 0 -9 11 -4 29 13 32 29 61
91 61 128 0 13 5 34 11 47 9 20 8 30 -6 51 -25 38 -12 32 42 -19 39 -37 53
-45 76 -41 16 3 27 1 27 -5 0 -6 6 -9 14 -6 8 3 20 -1 27 -9 9 -10 22 -14 41
-10 25 5 28 2 34 -29 5 -27 0 -45 -21 -81 -25 -43 -27 -51 -16 -81 12 -31 10
-38 -36 -121 -30 -55 -50 -105 -55 -137 -4 -32 -13 -54 -24 -60 -36 -20 -64
-54 -58 -70 5 -11 2 -14 -10 -9 -12 5 -16 0 -16 -20 0 -23 -3 -25 -18 -17 -15
8 -23 3 -45 -31 -53 -82 -45 -166 26 -271 l32 -47 3 30 c4 42 27 49 53 16 11
-14 24 -26 29 -26 4 0 6 26 3 58 l-5 59 36 23 c29 17 46 21 79 17 23 -3 43
-10 45 -15 1 -5 14 -7 28 -4 24 4 25 2 22 -29 -3 -30 -6 -34 -31 -34 -35 0
-56 -29 -31 -43 9 -5 26 -7 37 -4 17 4 18 2 8 -17 -17 -32 -80 -69 -129 -77
-50 -8 -60 -19 -38 -43 9 -10 16 -23 16 -29 0 -19 20 -24 105 -26 46 0 86 -4
90 -8 9 -9 -3 -44 -21 -63 -9 -8 -31 -15 -50 -15 -26 0 -44 -9 -69 -34 -19
-18 -35 -40 -35 -49 0 -8 -8 -17 -17 -19 -15 -3 -12 -10 17 -36 l35 -33 112 7
c107 7 112 6 142 -17 16 -13 30 -29 30 -35 1 -6 12 -21 26 -34 14 -13 25 -33
25 -45 0 -11 7 -30 15 -42 8 -11 18 -53 21 -92 8 -84 2 -87 -70 -40 -38 25
-55 47 -86 109 -21 42 -46 100 -55 128 -10 29 -19 52 -21 52 -2 0 -17 -28 -34
-62 -25 -50 -33 -80 -37 -148 -4 -62 -10 -91 -24 -109 -24 -30 -18 -36 20 -23
41 15 41 -4 0 -44 -17 -16 -45 -50 -61 -76 -38 -58 -52 -61 -43 -9 4 24 2 42
-4 46 -6 3 -11 16 -11 28 -1 24 -28 61 -50 69 -8 2 -15 11 -16 19 0 8 -2 24
-2 37 -3 34 -19 26 -38 -18 -17 -38 -34 -53 -34 -29 0 8 -5 8 -15 -1 -13 -10
-15 -9 -15 9 0 18 -3 19 -27 10 -16 -6 -50 -17 -78 -24 -27 -8 -72 -24 -100
-36 -27 -12 -54 -21 -58 -20 -5 1 -24 -8 -42 -19 -18 -11 -51 -21 -72 -22 -21
0 -50 -7 -65 -14 -14 -8 -41 -16 -60 -18 -50 -8 -85 -15 -111 -25 -13 -5 -43
-8 -66 -7 -27 2 -58 -5 -79 -16 -20 -10 -40 -14 -44 -10 -5 5 -34 5 -66 1 -31
-4 -75 -6 -97 -3 -36 5 -45 1 -83 -33 -36 -32 -43 -45 -46 -83 -4 -51 -19 -95
-36 -105 -6 -4 -8 -16 -5 -28 2 -12 2 -16 -1 -9 -3 6 -13 12 -22 12 -13 0 -11
5 8 20 l25 20 -24 20 c-23 19 -24 20 -36 3 -12 -17 -16 -33 -34 -133 -4 -25
-11 -52 -14 -60 -3 -8 -9 -33 -12 -55 -3 -22 -10 -41 -14 -43 -5 -2 -7 -11 -4
-22 5 -18 -17 -66 -44 -101 -16 -20 -63 -149 -55 -149 4 0 2 -4 -4 -8 -6 -4
-23 -68 -38 -142 -15 -74 -30 -144 -33 -155 -5 -19 -4 -19 19 3 31 28 38 28
35 -1 -2 -18 2 -21 23 -18 14 1 29 8 33 15 15 21 -5 -39 -29 -84 -41 -79 -41
-79 -59 -37 -21 50 -37 34 -54 -52 -7 -35 -17 -75 -22 -90 -7 -17 -7 -27 0
-29 6 -2 9 -8 6 -12 -3 -5 4 -14 15 -20 11 -6 20 -16 20 -23 -1 -21 -47 -70
-59 -63 -18 12 -40 -19 -57 -81 -39 -143 -91 -351 -97 -384 l-5 -36 105 -7
c59 -3 1002 -6 2097 -6 1970 0 1991 0 2021 20 17 11 38 20 47 20 25 0 35 26
58 142 16 83 22 175 31 476 14 520 -2 654 -90 739 -25 24 -49 43 -54 43 -4 0
-34 19 -65 43 -84 63 -276 189 -362 237 -41 22 -124 71 -185 108 -60 37 -139
85 -175 107 -36 21 -80 48 -98 59 -18 12 -59 57 -89 101 -31 44 -84 105 -117
137 l-61 56 0 199 c0 187 2 204 28 300 20 68 45 129 78 185 92 154 151 303
224 562 19 67 48 348 46 441 -2 85 -26 160 -66 203 -18 20 -44 49 -57 63 -13
14 -36 33 -53 42 -16 8 -43 30 -60 48 -62 67 -109 109 -121 109 -7 0 -28 13
-46 29 -40 35 -95 46 -122 26 -25 -19 -36 -19 -36 -1 0 8 -19 18 -47 24 -27 6
-84 20 -128 31 -44 12 -93 21 -110 20 -16 0 -73 2 -125 6 -85 6 -97 5 -113
-11z m-844 -486 c-10 -49 -15 -53 -24 -23 -6 20 -5 32 4 37 20 13 25 9 20 -14z
m127 -53 c7 -9 10 -18 7 -22 -8 -7 -37 15 -37 28 0 14 16 11 30 -6z m-100 -55
c0 -4 -11 -16 -25 -26 -14 -10 -25 -23 -25 -27 0 -5 -6 -15 -14 -22 -12 -12
-15 -10 -20 16 -9 45 16 77 54 71 17 -2 30 -8 30 -12z m32 -42 c-6 -6 -15 -8
-19 -4 -4 4 -1 11 7 16 19 12 27 3 12 -12z m344 -34 c-5 -13 -10 -14 -18 -6
-6 6 -8 18 -4 28 5 13 10 14 18 6 6 -6 8 -18 4 -28z m278 -140 c31 -12 15 -32
-35 -44 -54 -13 -65 -10 -55 15 9 25 59 41 90 29z m36 -122 c0 -10 -5 -23 -12
-30 -9 -9 -9 -12 0 -12 7 0 12 -4 12 -9 0 -20 -33 -41 -63 -41 -24 0 -28 -3
-17 -10 8 -5 45 -10 81 -10 94 0 160 -11 166 -27 3 -8 -14 -31 -39 -56 -43
-40 -68 -85 -74 -131 -14 -108 -13 -120 6 -150 44 -73 49 -195 8 -217 -20 -11
-21 -9 -14 22 4 19 10 57 12 84 7 62 -18 113 -64 135 -23 11 -30 20 -26 33 4
13 -14 38 -66 88 -60 58 -74 78 -86 122 -18 68 -18 97 1 97 18 0 18 5 5 31 -9
15 -7 19 6 19 9 0 40 7 70 16 42 12 55 21 60 40 7 28 34 33 34 6z m-455 -422
c3 -6 -3 -24 -15 -40 -22 -30 -43 -41 -36 -17 3 6 7 24 10 40 6 27 29 36 41
17z m113 -6 c12 -4 22 -13 22 -20 0 -8 5 -14 10 -14 20 0 9 -20 -14 -26 -14
-3 -32 -14 -42 -25 -9 -10 -26 -19 -37 -19 -19 0 -79 -37 -85 -52 -6 -13 -19
-9 -26 8 -9 22 20 71 52 88 15 8 38 26 51 40 26 27 32 29 69 20z m322 -189
c-7 -8 -18 -15 -24 -15 -6 0 -2 7 8 15 25 19 32 19 16 0z m-508 -877 c3 -7 -3
-26 -13 -43 -13 -20 -19 -24 -19 -13 0 9 5 20 10 23 8 5 8 11 1 19 -6 7 -8 16
-4 19 10 11 20 8 25 -5z m-32 -93 c0 -8 -9 -15 -20 -15 -25 0 -26 17 -2 23 9
3 18 5 20 6 1 0 2 -6 2 -14z m111 -48 c-10 -9 -11 -8 -5 6 3 10 9 15 12 12 3
-3 0 -11 -7 -18z m-16 -77 c-3 -5 -14 -10 -23 -10 -15 0 -15 2 -2 10 20 13 33
13 25 0z m-115 -40 c0 -5 -4 -10 -10 -10 -5 0 -10 5 -10 10 0 6 5 10 10 10 6
0 10 -4 10 -10z m-1120 -209 c0 -25 -14 -71 -21 -71 -10 0 -12 41 -3 64 6 17
24 22 24 7z m-35 -228 c-8 -44 -31 -126 -50 -184 -20 -57 -39 -117 -43 -133
-4 -16 -14 -32 -21 -34 -11 -4 -13 6 -7 47 4 33 3 51 -4 51 -5 0 -10 -4 -10
-10 0 -5 -7 -10 -16 -10 -9 0 -14 6 -11 13 2 6 0 20 -5 30 -10 19 12 44 70 84
12 8 29 32 38 52 9 20 23 50 30 68 8 17 14 38 14 46 0 21 19 71 25 65 3 -3 -2
-41 -10 -85z"/>
<path d="M2077 4673 c-4 -3 -7 -13 -7 -22 1 -13 3 -13 11 2 11 19 8 33 -4 20z"/>
<path d="M2030 4650 c0 -6 -24 -34 -53 -63 -29 -28 -66 -70 -82 -91 l-28 -39
34 24 c59 41 88 71 82 85 -3 9 2 14 15 14 11 0 24 6 29 13 16 19 25 67 13 67
-5 0 -10 -5 -10 -10z"/>
<path d="M2088 3983 c-10 -3 -18 -9 -18 -14 0 -5 -9 -18 -20 -29 -26 -26 -20
-36 25 -44 43 -8 44 -20 4 -36 -45 -19 -59 -37 -59 -78 0 -42 16 -73 28 -56 4
6 17 16 30 23 13 7 27 23 32 37 8 19 17 24 47 24 l38 1 -25 15 -25 14 30 -2
c36 -4 46 23 19 53 -17 19 -17 20 4 35 26 18 28 39 5 49 -22 9 -91 13 -115 8z
m12 -193 c0 -5 -7 -10 -16 -10 -8 0 -12 5 -9 10 3 6 10 10 16 10 5 0 9 -4 9
-10z"/>
<path d="M1955 3920 c10 -11 20 -18 23 -15 7 6 -18 35 -31 35 -5 0 -2 -9 8
-20z"/>
<path d="M2260 3202 c0 -14 11 -21 26 -15 8 3 11 9 8 14 -7 11 -34 12 -34 1z"/>
<path d="M846 2091 c-4 -5 -2 -12 3 -15 5 -4 12 -2 15 3 4 5 2 12 -3 15 -5 4
-12 2 -15 -3z"/>
</g>
</svg>
